#!OML:ASF H:\ManfredETheater\Project 1\Capture day 1\Session 1\subject.ASF
:FULLY-SPECIFIED
:DEGREES
274
root 0.985795 17.8455 -38.0893 189.883 -1.74215 -184.648
lowerback 18.3492 0.316165 -1.48599
upperback -1.14744 0.029894 0.082916
thorax -11.6207 0.0800979 0.935841
lowerneck -18.7272 -3.54924 -4.94441
upperneck 12.1495 -3.71398 1.14685
head 6.88284 -1.92302 0.749709
rclavicle 3.57812e-015 -6.36111e-015
rhumerus -32.6385 -4.50079 -85.4425
rradius 55.2407
rwrist -0.721836
rhand -26.3141 0.0188241
rfingers 7.12502
rthumb 0.242346 -29.9608
lclavicle 3.57812e-015 -6.36111e-015
lhumerus -40.8477 -0.345378 85.7455
lradius 63.0318
lwrist -1.91916
lhand -23.7047 -6.1546
lfingers 7.12502
lthumb 2.76255 23.8073
rfemur -27.2156 -8.28924 11.8942
rtibia 46.3905
rfoot -15.21 -4.44559
rtoes -24.1873
lfemur -36.0261 -1.6105 -16.4616
ltibia 51.273
lfoot -7.12413 -18.7356
ltoes 12.0128
275
root 0.991097 17.8786 -38.1917 190.057 -1.76734 -184.582
lowerback 17.8323 0.204841 -1.35528
upperback -1.31745 -0.0608881 0.147153
thorax -11.5116 0.0377742 0.955138
lowerneck -18.7578 -3.47824 -4.91804
upperneck 12.4499 -3.60869 1.03863
head 6.98053 -1.88428 0.719949
rclavicle -2.18663e-015 3.97569e-015
rhumerus -32.9161 -4.25892 -85.3312
rradius 55.6533
rwrist -0.710516
rhand -26.3262 0.101215
rfingers 7.12502
rthumb 0.230724 -29.8784
lclavicle -2.18663e-015 3.97569e-015
lhumerus -40.5139 -0.0189173 85.4809
lradius 63.0811
lwrist -1.8066
lhand -23.6247 -5.92217
lfingers 7.12502
lthumb 2.83982 24.0387
rfemur -26.5193 -8.11451 11.9868
rtibia 45.4864
rfoot -15.2125 -4.70041
rtoes -24.1872
lfemur -35.4023 -1.13893 -16.5962
ltibia 50.6129
lfoot -7.5248 -18.5498
ltoes 12.6526
276
root 0.995886 17.9081 -38.2916 190.228 -1.77761 -184.48
lowerback 17.3343 0.110793 -1.19364
upperback -1.46319 -0.125562 0.221946
thorax -11.3859 0.00459866 0.960439
lowerneck -18.7818 -3.41874 -4.89958
upperneck 12.7047 -3.51805 0.936291
head 7.06319 -1.85251 0.692062
rclavicle -5.96354e-015 -1.51076e-014
rhumerus -33.1379 -4.03623 -85.2177
rradius 56.0644
rwrist -0.741844
rhand -26.3745 0.176083
rfingers 7.12502
rthumb 0.184056 -29.8036
lclavicle -5.96354e-015 -1.51076e-014
lhumerus -40.1347 0.252416 85.2496
lradius 63.1115
lwrist -1.67139
lhand -23.6103 -5.76064
lfingers 7.12502
lthumb 2.85367 24.2
rfemur -25.8733 -7.9339 12.1165
rtibia 44.6406
rfoot -15.2108 -4.93044
rtoes -24.2201
lfemur -34.8024 -0.704252 -16.6648
ltibia 49.9718
lfoot -7.97595 -18.3761
ltoes 13.3049
277
root 0.999109 17.9339 -38.3883 190.394 -1.76421 -184.34
lowerback 16.8761 0.0356131 -0.989216
upperback -1.59509 -0.160018 0.304257
thorax -11.2679 -0.0177596 0.941133
lowerneck -18.7884 -3.37027 -4.8919
upperneck 12.9181 -3.44139 0.840493
head 7.13038 -1.82742 0.666893
rclavicle -7.95139e-016 -3.97569e-015
rhumerus -33.3218 -3.82833 -85.1017
rradius 56.4729
rwrist -0.837185
rhand -26.452 0.249659
rfingers 7.12502
rthumb 0.109151 -29.7301
lclavicle -7.95139e-016 -3.97569e-015
lhumerus -39.7372 0.467804 85.0543
lradius 63.1413
lwrist -1.50549
lhand -23.6638 -5.63856
lfingers 7.12502
lthumb 2.80207 24.3228
rfemur -25.2763 -7.75943 12.2796
rtibia 43.8513
rfoot -15.2137 -5.11826
rtoes -24.2732
lfemur -34.2185 -0.317419 -16.6696
ltibia 49.3459
lfoot -8.4834 -18.1989
ltoes 13.9457
278
root 1.00005 17.9562 -38.4825 190.547 -1.72324 -184.182
lowerback 16.4667 -0.0210623 -0.757455
upperback -1.71845 -0.168632 0.387524
thorax -11.1687 -0.0303257 0.900542
lowerneck -18.7608 -3.32993 -4.8905
upperneck 13.0913 -3.37663 0.748701
head 7.17932 -1.80801 0.643343
rclavicle 1.98785e-016 3.73715e-014
rhumerus -33.4812 -3.62145 -84.9861
rradius 56.8776
rwrist -0.995231
rhand -26.5378 0.291466
rfingers 7.12502
rthumb 0.0263526 -29.6883
lclavicle 1.98785e-016 3.73715e-014
lhumerus -39.342 0.631313 84.8938
lradius 63.1704
lwrist -1.29568
lhand -23.7776 -5.55377
lfingers 7.12502
lthumb 2.69213 24.409
rfemur -24.7136 -7.60953 12.4494
rtibia 43.113
rfoot -15.2302 -5.2503
rtoes -24.3599
lfemur -33.6339 0.0076899 -16.6367
ltibia 48.7316
lfoot -9.04522 -17.9995
ltoes 14.5714
279
root 0.998995 17.9746 -38.5733 190.696 -1.64751 -184.018
lowerback 16.1033 -0.0565027 -0.519802
upperback -1.82773 -0.15206 0.469867
thorax -11.0805 -0.0321525 0.849358
lowerneck -18.7289 -3.29896 -4.89371
upperneck 13.2344 -3.32405 0.660688
head 7.21824 -1.79417 0.620558
rclavicle -4.37326e-015 -1.43125e-014
rhumerus -33.5913 -3.41259 -84.8732
rradius 57.2741
rwrist -1.1916
rhand -26.607 0.300978
rfingers 7.12502
rthumb -0.040544 -29.6788
lclavicle -4.37326e-015 -1.43125e-014
lhumerus -38.9378 0.755631 84.7646
lradius 63.2107
lwrist -1.06499
lhand -23.9264 -5.50579
lfingers 7.12502
lthumb 2.54843 24.4587
rfemur -24.1965 -7.47328 12.6138
rtibia 42.4224
rfoot -15.2605 -5.33826
rtoes -24.4794
lfemur -33.0585 0.265096 -16.5806
ltibia 48.1314
lfoot -9.66223 -17.7565
ltoes 15.1252
280
root 0.996094 17.9891 -38.6614 190.841 -1.5461 -183.857
lowerback 15.7785 -0.0734948 -0.287767
upperback -1.92684 -0.11563 0.550065
thorax -11.0034 -0.0248648 0.794384
lowerneck -18.6813 -3.2768 -4.90168
upperneck 13.3508 -3.2839 0.578162
head 7.24636 -1.7859 0.599227
rclavicle 1.09332e-014 9.54166e-015
rhumerus -33.6619 -3.19984 -84.7618
rradius 57.6598
rwrist -1.40479
rhand -26.6405 0.287777
rfingers 7.12502
rthumb -0.0728471 -29.692
lclavicle 1.09332e-014 9.54166e-015
lhumerus -38.5441 0.846532 84.6663
lradius 63.27
lwrist -0.828686
lhand -24.0856 -5.46592
lfingers 7.12502
lthumb 2.39471 24.5004
rfemur -23.7149 -7.35951 12.7627
rtibia 41.7763
rfoot -15.3164 -5.38878
rtoes -24.6274
lfemur -32.4911 0.449579 -16.5148
ltibia 47.5489
lfoot -10.3319 -17.4637
ltoes 15.5933
281
root 0.99186 17.9996 -38.7474 190.985 -1.42969 -183.709
lowerback 15.4956 -0.0764956 -0.076054
upperback -2.02029 -0.0673711 0.62828
thorax -10.944 -0.0111674 0.746344
lowerneck -18.6173 -3.26064 -4.91029
upperneck 13.4468 -3.25354 0.50096
head 7.26542 -1.78173 0.578929
rclavicle 9.74045e-015 4.45278e-014
rhumerus -33.6919 -2.97343 -84.6544
rradius 58.0197
rwrist -1.60692
rhand -26.6246 0.249882
rfingers 7.12502
rthumb -0.0574927 -29.7299
lclavicle 9.74045e-015 4.45278e-014
lhumerus -38.176 0.908495 84.5951
lradius 63.3559
lwrist -0.595182
lhand -24.2339 -5.43913
lfingers 7.12502
lthumb 2.25143 24.5287
rfemur -23.2636 -7.26792 12.8897
rtibia 41.1763
rfoot -15.4064 -5.41768
rtoes -24.8008
lfemur -31.9368 0.557347 -16.4484
ltibia 46.9915
lfoot -11.0423 -17.1225
ltoes 15.9937
